<?xml version="1.0" standalone="no"?>
<!DOCTYPE svg PUBLIC "-//W3C//DTD SVG 20010904//EN"
 "http://www.w3.org/TR/2001/REC-SVG-20010904/DTD/svg10.dtd">
<svg version="1.0" xmlns="http://www.w3.org/2000/svg"
 width="700.000000pt" height="700.000000pt" viewBox="0 0 700.000000 700.000000"
 preserveAspectRatio="xMidYMid meet">
<metadata>
Created by potrace 1.11, written by Peter Selinger 2001-2013
</metadata>
<g transform="translate(0.000000,700.000000) scale(0.100000,-0.100000)"
fill="#000000" stroke="none">
<path d="M3235 6989 c-169 -16 -254 -27 -320 -39 -270 -52 -412 -90 -590 -155
-55 -20 -118 -44 -140 -52 -71 -26 -317 -146 -415 -202 -349 -200 -667 -464
-936 -776 -124 -143 -316 -420 -394 -567 -34 -65 -34 -66 -17 -104 19 -45 170
-431 244 -624 13 -36 29 -74 33 -85 5 -11 46 -114 91 -230 44 -115 106 -273
136 -350 79 -200 139 -354 185 -475 22 -58 46 -118 53 -135 13 -32 61 -153
115 -293 18 -46 34 -82 36 -80 4 4 53 131 185 483 50 132 115 303 144 380 29
77 117 309 194 515 78 206 145 384 150 395 11 26 19 45 160 420 67 176 121
326 121 333 0 7 4 12 8 12 9 0 118 -292 287 -765 23 -66 106 -295 185 -510 78
-214 143 -394 144 -400 2 -5 6 -17 9 -25 7 -17 132 -363 233 -642 37 -104 70
-188 74 -188 3 0 100 226 214 503 115 276 214 516 222 532 7 17 43 102 79 190
159 383 208 502 220 530 8 17 29 68 48 115 49 121 136 330 152 365 7 17 21 49
30 73 10 23 20 43 24 43 3 1 133 2 289 3 l283 1 -6 -23 c-3 -14 -14 -43 -25
-66 -10 -22 -120 -279 -245 -571 -124 -291 -230 -539 -235 -550 -5 -11 -36
-82 -68 -157 -56 -130 -58 -138 -38 -139 28 -1 1768 -1 1781 0 6 1 19 22 29
49 20 49 49 116 72 167 7 17 89 210 183 430 93 220 212 500 264 623 l95 223
-68 112 c-90 150 -220 337 -295 424 -166 192 -330 360 -465 474 -62 52 -230
177 -323 238 -417 276 -920 471 -1382 536 -22 4 -47 8 -55 10 -8 2 -51 7 -95
11 -44 3 -84 8 -89 11 -13 8 -490 10 -571 2z"/>
<path d="M6850 4451 c0 -5 -90 -222 -201 -483 -110 -260 -248 -585 -306 -723
-57 -137 -113 -268 -123 -290 -10 -22 -105 -245 -210 -495 -106 -250 -224
-529 -262 -620 -38 -91 -78 -183 -87 -205 -10 -22 -33 -76 -51 -120 -18 -44
-37 -84 -41 -89 -8 -10 -529 -15 -553 -6 -10 4 20 85 110 305 68 165 128 309
133 320 9 19 144 348 243 590 27 66 59 145 72 175 81 189 157 381 153 387 -5
8 -1794 10 -1801 2 -2 -2 -59 -137 -126 -299 -67 -162 -127 -308 -135 -325 -7
-16 -25 -59 -39 -95 -15 -36 -31 -74 -36 -85 -9 -19 -193 -461 -290 -695 -26
-63 -62 -150 -80 -193 l-33 -78 -69 188 c-37 103 -86 235 -107 293 -21 58 -76
206 -121 330 -44 124 -90 248 -100 275 -34 93 -91 249 -136 375 -25 69 -51
141 -59 160 -8 19 -48 127 -89 240 -168 466 -230 630 -236 630 -4 0 -11 -15
-17 -32 -14 -43 -331 -887 -343 -913 -16 -35 -70 -179 -70 -187 0 -5 -9 -27
-19 -51 -11 -23 -58 -148 -106 -277 -48 -129 -93 -248 -100 -265 -8 -16 -25
-61 -39 -100 -40 -111 -247 -659 -254 -672 -4 -6 -194 455 -421 1025 -228 570
-418 1044 -422 1052 -5 8 -74 182 -155 385 -80 204 -155 388 -164 410 -10 23
-22 53 -25 68 -4 15 -10 27 -14 27 -4 0 -16 -37 -26 -82 -10 -46 -19 -87 -21
-93 -5 -21 -43 -252 -48 -291 -21 -168 -28 -527 -14 -709 7 -82 22 -211 34
-275 2 -14 6 -38 9 -55 3 -16 8 -41 10 -55 3 -14 7 -34 9 -45 45 -233 156
-562 273 -802 449 -928 1279 -1611 2270 -1868 72 -19 142 -36 155 -39 13 -2
60 -11 106 -20 46 -9 111 -19 145 -22 34 -3 65 -8 68 -9 15 -10 227 -20 409
-20 188 0 341 8 430 21 144 21 295 48 345 61 33 8 67 16 75 18 109 22 388 117
549 187 121 53 308 148 353 179 14 11 29 19 33 19 24 0 383 257 495 355 119
104 294 279 365 365 21 25 41 47 44 50 18 12 182 236 247 336 272 419 469 946
529 1414 6 51 13 97 21 155 9 60 11 563 3 617 -4 25 -10 79 -14 120 -8 89 -51
335 -70 401 -8 26 -14 50 -14 52 2 17 -26 105 -33 105 -4 0 -8 -4 -8 -9z"/>
</g>
</svg>
