<?xml version="1.0" encoding="utf-8"?>
<!-- Generator: Adobe Illustrator 15.0.0, SVG Export Plug-In . SVG Version: 6.00 Build 0)  -->
<!DOCTYPE svg PUBLIC "-//W3C//DTD SVG 1.1//EN" "http://www.w3.org/Graphics/SVG/1.1/DTD/svg11.dtd">
<svg version="1.1" id="Layer_1" xmlns="http://www.w3.org/2000/svg" xmlns:xlink="http://www.w3.org/1999/xlink" x="0px" y="0px"
	 width="250.769px" height="250.769px" viewBox="293.938 113.978 250.769 250.769"
	 enable-background="new 293.938 113.978 250.769 250.769" xml:space="preserve">
<text transform="matrix(1 0 0 1 393.6489 261.6992)" display="none" enable-background="new    " font-family="'Futura-Medium'" font-size="72">H</text>
<rect x="42" y="1157" width="411" height="231"/>
<g>
	<text transform="matrix(1 0 0 1 51.3945 1361.041)" fill="#FFFFFF" font-family="'Futura-Medium'" font-size="256.7346">W</text>
	<rect x="259" y="1250" fill="#FFFFFF" width="139" height="25"/>
	<polygon fill="#FFFFFF" points="421.633,1167 334.856,1375 365.774,1375 453.22,1167 	"/>
</g>
<g>
	<text transform="matrix(1 0 0 1 58.3945 1049.041)" font-family="'Futura-Medium'" font-size="256.7346">W</text>
	<rect x="266" y="938" width="139" height="25"/>
	<polygon points="428.633,855 341.856,1063 372.774,1063 460.22,855 	"/>
</g>
<rect x="580" y="1030" width="309" height="309"/>
<g>
	<path fill="#52D1DC" d="M493.408,314h-20.371l26.421-64h-64.866l-26.49,63.587l-32.79-89.812l-34.194,90.603l-42.963-107.346
		c-2.745,10.315-4.217,21.15-4.217,32.33c0,69.249,56.137,125.385,125.385,125.385c69.247,0,125.384-56.137,125.384-125.385
		c0-12.095-1.718-23.786-4.913-34.852L493.408,314z"/>
	<path fill="#52D1DC" d="M341.035,263.993l34.689-91.675l33.203,91.594L444.195,179h20.896l-23.116,54h64.846l22.728-53.446
		c-21.239-39.062-62.637-65.576-110.227-65.576c-48.05,0-89.779,27.033-110.83,66.715L341.035,263.993z"/>
</g>
<g>
	<text transform="matrix(1 0 0 1 606.8262 1242.1484)" fill="#FFFFFF" font-family="'Futura-Medium'" font-size="163.6257">W</text>
	<rect x="739" y="1172" fill="#FFFFFF" width="89" height="17"/>
	<polygon fill="#FFFFFF" points="842.789,1118 787.484,1250 807.19,1250 862.922,1118 	"/>
</g>
</svg>
